<?xml version="1.0" standalone="no"?>
<!DOCTYPE svg PUBLIC "-//W3C//DTD SVG 20010904//EN"
 "http://www.w3.org/TR/2001/REC-SVG-20010904/DTD/svg10.dtd">
<svg version="1.0" xmlns="http://www.w3.org/2000/svg"
 width="512.000000pt" height="512.000000pt" viewBox="0 0 512.000000 512.000000"
 preserveAspectRatio="xMidYMid meet">
<metadata>
Created by potrace 1.16, written by Peter Selinger 2001-2019
</metadata>
<g transform="translate(0.000000,512.000000) scale(0.100000,-0.100000)"
fill="rgba(82,82,82,0.036)" stroke="none">
<path d="M1696 4288 c2 -18 3 -230 4 -471 l2 -437 -33 -38 c-18 -20 -35 -36
-38 -35 -4 1 -5 -75 -3 -168 3 -147 1 -169 -13 -169 -13 0 -15 23 -16 168 0
92 -4 156 -7 142 -4 -14 -6 -91 -4 -172 3 -116 6 -148 17 -148 7 0 27 -13 43
-30 l30 -30 251 0 251 0 0 -30 c0 -20 5 -30 15 -30 21 0 19 -22 -5 -48 -25
-27 -25 -27 -50 -2 -11 11 -29 20 -40 20 -34 0 -42 -33 -35 -149 6 -92 5 -109
-9 -120 -12 -10 -16 -31 -16 -81 0 -62 3 -71 38 -118 20 -28 47 -56 60 -61 75
-35 210 21 270 111 l27 42 3 377 3 378 30 25 c19 16 48 28 79 32 l50 7 0 58 0
59 31 0 c45 0 65 -15 83 -61 9 -23 16 -43 14 -44 -8 -8 -77 -22 -82 -17 -3 3
-6 14 -6 24 0 10 -7 18 -15 18 -8 0 -15 -4 -15 -10 0 -5 5 -10 10 -10 13 0 13
-87 0 -95 -6 -3 -26 -1 -45 6 -26 10 -40 10 -60 1 l-25 -12 0 -343 c0 -276 -3
-353 -15 -394 -32 -108 -160 -203 -273 -203 -69 0 -104 21 -145 85 l-32 50 2
128 c2 118 1 127 -16 127 -23 0 -31 -41 -31 -171 0 -82 3 -100 21 -123 11 -14
25 -26 32 -26 6 0 25 -15 42 -34 95 -104 300 -44 393 114 l27 45 5 370 5 370
35 0 34 0 2 -70 c0 -38 -4 -85 -9 -103 -14 -50 0 -99 40 -143 94 -104 263 -47
263 89 0 92 -55 142 -156 142 -61 0 -62 0 -68 31 -3 17 -6 35 -6 40 0 5 52 8
114 7 124 -1 146 6 146 48 0 42 -27 57 -95 52 l-62 -4 -11 41 c-6 22 -23 51
-37 65 -26 24 -32 25 -158 25 -104 0 -142 -4 -179 -18 -51 -20 -108 -76 -108
-107 0 -11 -4 -20 -10 -20 -29 0 9 79 56 118 21 18 33 32 27 32 -23 0 -81 -66
-93 -108 -9 -30 -19 -42 -32 -42 -17 0 -18 -10 -18 -130 l0 -130 -242 -1
c-147 0 -235 -4 -223 -9 11 -5 120 -6 243 -3 l222 5 0 -26 0 -26 -250 0 c-237
0 -251 1 -270 20 -18 18 -20 33 -20 188 l0 168 35 35 c25 27 35 46 37 75 6
100 -3 914 -10 914 -5 0 -7 -15 -6 -32z m884 -973 c0 -53 -1 -55 -26 -55 -37
0 -93 -29 -112 -59 -15 -22 -18 -72 -22 -402 l-5 -377 -30 -39 c-37 -45 -144
-103 -192 -103 -47 0 -65 12 -107 69 -28 37 -36 58 -36 90 0 34 4 43 24 50 25
10 36 36 36 86 0 17 9 54 20 83 11 29 20 61 20 72 0 12 10 25 23 31 46 21 56
55 56 190 -1 243 1 279 11 279 7 0 10 -65 8 -195 -2 -107 0 -195 5 -195 4 0 7
95 7 210 0 246 2 254 82 294 45 22 65 26 145 26 l93 0 0 -55z m298 -107 l-3
-33 -117 -3 c-111 -2 -118 -2 -118 17 0 42 25 51 136 51 l105 0 -3 -32z m-248
-95 c0 -30 -3 -34 -22 -31 -13 2 -22 6 -20 11 1 4 2 20 2 36 0 24 3 28 20 24
15 -4 20 -14 20 -40z m-3 -59 c3 -8 1 -20 -6 -27 -15 -15 -14 -27 4 -27 8 0
15 9 15 19 0 45 78 65 143 37 47 -19 69 -49 74 -100 12 -103 -103 -180 -196
-131 -52 27 -81 71 -81 125 0 27 4 51 10 55 5 3 7 12 3 20 -7 19 3 45 17 45 6
0 13 -7 17 -16z m-487 -295 c0 -38 -23 -111 -36 -116 -10 -4 -14 -24 -14 -69
0 -49 -4 -66 -15 -71 -23 -8 -31 5 -11 20 14 10 16 28 15 112 0 55 -1 111 -1
124 0 13 6 27 13 32 19 11 49 -8 49 -32z m-126 -267 c-5 -90 -4 -113 10 -140
9 -18 12 -32 7 -32 -12 0 -27 20 -36 49 -10 32 4 231 16 231 6 0 7 -41 3 -108z"/>
<path d="M2686 3019 c49 -14 68 -44 75 -113 l6 -61 1 53 c3 82 -32 133 -90
131 -19 -1 -18 -2 8 -10z"/>
<path d="M1592 3852 c-1 -172 -6 -291 -12 -303 -9 -15 -22 -19 -68 -19 -79 0
-126 -15 -156 -51 l-26 -31 0 -547 c0 -492 -2 -564 -20 -697 -23 -172 -74
-455 -96 -531 -14 -48 -18 -53 -50 -59 -19 -3 -34 -10 -34 -15 0 -5 -14 -9
-31 -9 l-32 0 7 -145 8 -145 -91 0 -91 0 0 164 0 163 46 7 c60 8 120 42 134
76 9 23 7 42 -14 111 -14 46 -32 133 -40 192 -7 63 -19 114 -27 122 -11 12
-33 12 -119 4 -58 -5 -181 -9 -275 -7 l-170 3 2 -104 c3 -116 19 -249 32 -265
9 -11 14 -146 12 -348 l-1 -118 -240 0 c-153 0 -240 -4 -240 -10 0 -6 88 -10
245 -10 l245 0 0 -138 0 -139 -68 -10 c-63 -9 -59 -10 73 -10 120 0 133 1 92
10 l-47 10 0 139 0 138 160 0 160 0 0 -134 0 -133 -31 -7 c-17 -3 -46 -6 -63
-7 -68 -1 9 -18 84 -17 80 0 201 14 144 17 -17 0 -46 4 -63 7 l-31 6 0 134 0
134 95 0 96 0 -3 -117 -3 -118 -40 -3 c-22 -1 -60 -5 -85 -9 l-45 -7 60 -8
c33 -4 117 -10 186 -14 124 -6 126 -6 143 17 9 13 16 37 16 54 l0 30 455 1
455 0 -15 -23 c-8 -12 -15 -40 -15 -63 l0 -40 575 0 c558 0 575 1 585 19 19
36 12 67 -46 198 -3 7 10 14 36 18 23 4 67 20 97 36 l55 29 304 0 304 0 0 -64
0 -63 -37 -7 c-21 -3 -50 -6 -64 -6 -33 0 -52 -22 -53 -63 -1 -18 -5 -37 -9
-44 -4 -6 -2 -15 5 -20 21 -13 343 -17 367 -3 25 13 19 30 -10 30 -15 0 -19 7
-19 30 0 43 -39 80 -85 80 l-35 0 0 65 0 65 180 0 180 0 0 -129 c0 -141 0
-140 -60 -152 -22 -4 6 -7 78 -8 73 -1 111 3 107 9 -3 5 -15 10 -26 10 -18 0
-19 8 -19 135 l0 135 255 0 c163 0 255 4 255 10 0 6 -92 10 -255 10 l-255 0 0
205 0 205 70 0 70 0 0 65 0 65 -45 2 c-25 1 -53 2 -62 2 -16 1 -19 15 -23 111
-3 61 -2 114 2 120 5 5 8 17 8 27 0 16 -10 18 -80 18 -73 0 -97 -9 -70 -25 6
-3 10 -1 10 4 0 7 25 11 61 11 57 0 60 -1 57 -22 -3 -20 -8 -22 -45 -20 -25 2
-43 -1 -43 -7 0 -6 8 -8 18 -4 14 5 15 3 5 -8 -9 -8 -13 -45 -13 -106 0 -55
-4 -93 -10 -93 -6 0 -10 31 -10 73 -1 45 -6 79 -14 90 -11 14 -15 15 -19 5 -4
-10 -8 -10 -16 2 -6 8 -11 11 -11 5 0 -5 -5 -3 -10 5 -7 11 -5 17 8 22 12 5
10 7 -10 7 -16 1 -27 -2 -27 -6 4 -25 -3 -41 -21 -46 -18 -5 -20 -14 -20 -86
l0 -81 -104 0 -104 0 -6 45 c-8 48 0 89 14 80 5 -3 11 -1 15 5 4 6 -11 10 -40
10 -51 0 -72 -23 -42 -45 11 -8 17 -27 17 -54 l0 -42 -102 3 -103 3 -3 -72 -3
-73 131 0 130 0 0 -30 0 -30 -68 0 c-79 0 -92 -9 -92 -62 0 -28 6 -41 24 -53
13 -9 31 -12 41 -9 27 11 35 -14 35 -119 l0 -97 -305 0 -306 1 27 32 c15 18
56 92 90 165 37 77 68 131 74 127 5 -3 10 0 10 8 0 7 14 26 31 43 52 49 70 89
85 186 8 51 18 111 24 133 5 22 12 56 15 76 4 25 12 38 25 42 23 6 37 53 23
76 -6 9 -23 16 -39 16 -29 0 -29 -1 -30 -60 -1 -105 -14 -163 -60 -287 -24
-66 -43 -122 -41 -125 3 -2 19 37 37 87 18 49 35 90 37 90 9 0 -8 -114 -22
-145 -7 -16 -25 -41 -39 -55 -24 -22 -26 -22 -21 -5 3 11 0 9 -7 -5 -7 -14
-25 -41 -40 -60 -14 -19 -48 -84 -74 -144 -26 -60 -61 -127 -79 -150 l-31 -41
-118 -5 c-141 -6 -151 -1 -116 63 65 116 100 157 158 183 65 29 112 69 112 97
0 49 -49 78 -93 56 -28 -15 -77 -60 -77 -72 0 -5 18 7 41 27 31 29 47 36 71
34 71 -7 43 -88 -42 -122 -38 -15 -75 -13 -65 4 3 5 -3 15 -12 22 -17 12 -17
15 5 58 12 24 22 41 22 37 0 -4 27 22 60 59 44 49 76 100 124 197 36 73 73
156 83 184 18 53 18 53 -4 74 l-22 22 24 47 c39 76 41 111 10 148 -40 48 -83
45 -135 -9 -22 -23 -45 -59 -52 -80 -10 -35 -9 -43 9 -68 l21 -28 -24 5 c-44
8 -74 -8 -169 -95 -107 -97 -171 -175 -185 -224 -20 -69 24 -131 117 -164 26
-10 62 -24 80 -33 32 -16 32 -16 17 -51 -20 -47 -18 -46 -64 -32 -29 8 -40 17
-40 31 0 14 -16 28 -51 46 -28 14 -74 49 -103 78 -67 68 -111 88 -200 89 -91
2 -193 -8 -228 -22 -21 -8 -28 -8 -28 2 0 18 59 53 119 71 69 20 201 30 221
17 28 -19 -3 -29 -105 -33 -55 -3 -113 -10 -129 -17 -39 -16 -28 -23 15 -10
19 6 79 14 134 17 98 7 100 7 100 32 l0 25 -100 -1 c-68 0 -117 -6 -153 -18
-59 -20 -126 -72 -118 -91 3 -9 -27 -22 -92 -40 -53 -15 -119 -36 -146 -47
l-48 -19 -37 42 c-20 23 -40 48 -44 55 -6 11 -12 11 -26 2 -20 -12 -51 -5 -51
11 0 6 12 8 29 5 16 -4 32 -1 35 5 4 6 16 11 27 11 13 0 19 7 18 23 0 12 -3
16 -6 10 -3 -9 -27 -13 -69 -13 -35 0 -64 -2 -64 -5 0 -23 28 -57 51 -62 27
-5 28 -8 31 -79 2 -41 -1 -74 -5 -74 -5 0 -35 -25 -67 -56 -32 -31 -64 -53
-69 -49 -12 7 -14 133 -4 238 5 58 9 67 25 67 11 0 22 9 25 19 6 25 30 31 133
31 124 1 230 15 248 34 13 13 13 20 3 42 -12 26 -13 27 -84 20 -40 -4 -126
-15 -192 -26 -105 -17 -121 -17 -135 -5 -36 32 -79 3 -46 -30 18 -19 22 -40 5
-29 -6 3 -18 22 -25 41 -10 23 -20 33 -32 31 -24 -5 -26 -33 -7 -83 13 -35 22
-44 43 -47 l27 -3 1 -150 c1 -82 2 -159 3 -170 1 -11 -1 -37 -5 -58 -11 -67
39 -95 214 -122 l93 -14 92 35 c164 64 378 134 388 129 22 -14 5 -31 -50 -47
-77 -23 -153 -90 -176 -156 -28 -79 -22 -75 -117 -73 -114 3 -161 -12 -222
-71 l-50 -48 -78 0 c-76 0 -78 1 -78 24 0 57 3 56 -195 56 -166 0 -184 2 -189
18 -3 9 -17 73 -31 142 -14 69 -39 178 -55 242 -17 64 -30 119 -30 122 0 3 75
7 168 9 l167 3 -167 2 c-165 2 -168 2 -172 25 -3 12 -20 111 -38 220 l-34 197
236 2 c147 2 186 4 103 5 l-133 4 0 134 0 135 114 0 c72 0 117 4 122 11 10 16
18 173 10 203 l-6 26 -160 0 -160 0 0 -29 c0 -28 -2 -30 -47 -33 l-48 -3 -3
-79 c-3 -89 1 -96 61 -96 34 0 37 -2 37 -30 0 -16 5 -30 10 -30 6 0 10 14 10
30 0 25 4 30 25 30 l25 0 0 -135 0 -135 -150 0 -150 0 6 -77 c3 -43 10 -118
15 -168 6 -49 14 -148 19 -220 8 -133 33 -264 70 -369 11 -33 20 -61 20 -63 0
-1 -45 -3 -100 -3 l-100 0 0 139 c0 102 3 141 13 144 6 3 -4 6 -23 7 -19 1
-27 4 -17 7 14 4 17 16 17 77 0 89 23 330 50 530 18 133 20 203 20 678 l0 529
25 24 c21 22 33 25 92 25 75 0 136 23 141 53 3 14 -2 13 -22 -8 -21 -21 -34
-25 -83 -25 -32 0 -75 -5 -95 -10 -71 -20 -68 4 -68 -576 0 -464 -2 -537 -20
-668 -27 -203 -50 -436 -50 -517 0 -83 -6 -99 -35 -99 -50 0 -54 7 -38 58 16
52 53 246 85 452 20 123 22 187 27 733 l6 599 31 27 c26 23 43 29 105 34 90 7
108 13 114 41 3 11 4 147 3 301 l-3 280 -3 -283z m338 -1252 c0 -74 -3 -102
-13 -106 -8 -3 -55 -3 -105 -2 -78 3 -90 5 -82 18 8 12 12 13 19 2 12 -20 19
26 13 88 -4 49 -5 50 -38 50 -26 0 -34 4 -34 18 0 10 3 22 7 25 3 4 57 7 120
7 l113 0 0 -100z m-250 86 c0 -2 -3 -11 -6 -20 -9 -23 -34 -20 -34 4 0 13 7
20 20 20 11 0 20 -2 20 -4z m30 -81 c0 -19 -6 -25 -22 -26 l-23 -2 23 -4 c12
-2 22 -11 22 -19 0 -20 -69 -19 -76 1 -4 8 -16 15 -28 15 -16 0 -18 -2 -7 -9
8 -5 15 -23 15 -40 1 -29 -1 -31 -36 -31 l-38 0 0 70 0 70 85 0 c84 0 85 0 85
-25z m35 15 c-3 -5 -10 -10 -16 -10 -5 0 -9 5 -9 10 0 6 7 10 16 10 8 0 12 -4
9 -10z m-59 -123 c4 -4 -7 -7 -25 -7 -19 0 -30 4 -26 10 6 10 40 8 51 -3z
m1946 -74 c10 -9 18 -30 18 -47 0 -44 -61 -150 -88 -154 -16 -3 -20 1 -16 12
4 11 0 16 -12 16 -26 0 -54 30 -54 58 0 50 70 131 114 132 11 0 28 -7 38 -17z
m-125 -219 c8 -21 -4 -41 -103 -175 -100 -134 -114 -158 -123 -215 l-6 -42
-50 16 c-53 18 -95 65 -95 107 0 40 78 142 181 234 94 87 101 91 144 91 32 0
47 -5 52 -16z m123 -21 c0 -24 -49 -140 -103 -246 -53 -106 -122 -201 -137
-192 -6 4 -10 0 -10 -7 0 -9 -3 -9 -10 2 -9 13 -10 13 -11 0 0 -10 -2 -11 -6
-2 -2 6 -9 10 -14 6 -5 -3 -9 0 -9 6 0 6 -4 9 -9 6 -11 -7 -21 17 -21 52 0 46
44 122 147 257 79 103 105 131 129 136 36 7 54 1 54 -18z m259 3 c9 -11 10
-20 2 -35 -19 -34 -59 -3 -45 34 8 19 28 19 43 1z m-2409 -8 c0 -2 7 -38 15
-81 8 -42 26 -149 40 -237 13 -88 40 -222 59 -297 19 -76 42 -176 51 -223 9
-47 19 -93 21 -102 5 -15 -2 -18 -44 -18 -47 0 -51 2 -61 30 -9 26 -8 30 9 30
10 0 22 5 25 10 6 10 -12 14 -46 11 -33 -3 -109 315 -109 458 0 43 -4 100 -9
127 -5 27 -12 104 -16 172 l-8 122 37 0 c20 0 36 -1 36 -2z m-485 -60 c3 -3
13 -55 21 -116 8 -61 23 -138 33 -171 l19 -61 -283 0 c-214 0 -285 3 -292 13
-6 6 -13 30 -17 52 l-6 40 16 -28 c24 -44 27 -26 4 26 -21 46 -47 215 -37 239
3 10 65 13 270 13 146 -1 269 -3 272 -7z m3613 -172 c2 -49 -1 -93 -6 -98 -5
-5 -21 -6 -36 -2 -25 6 -26 8 -26 84 0 98 5 112 39 108 26 -3 26 -4 29 -92z
m-2123 44 c0 -22 -5 -26 -45 -32 -25 -3 -106 -9 -181 -14 -102 -5 -138 -4
-144 5 -4 7 -5 15 -1 18 8 9 298 52 336 50 30 -2 35 -5 35 -27z m-408 -2 c12
-15 24 -48 18 -48 -2 0 -13 14 -25 30 -20 28 -14 44 7 18z m2411 -67 l-3 -76
-45 0 -45 0 -3 78 -3 78 51 -2 51 -3 -3 -75z m-2470 24 c12 -25 18 -45 13 -45
-11 0 -51 62 -51 79 0 24 17 9 38 -34z m2128 -35 c1 -33 -2 -60 -7 -60 -5 0
-9 23 -9 51 0 31 -4 48 -10 44 -5 -3 -10 1 -10 9 0 9 8 16 18 16 14 0 17 -10
18 -60z m-1157 -64 c33 -18 101 -74 101 -85 0 -3 -39 -6 -87 -6 -79 0 -102 -5
-223 -47 -259 -89 -407 -111 -486 -70 -22 11 -45 30 -52 41 -11 19 -9 22 25
36 128 54 407 135 513 148 63 9 177 -1 209 -17z m-689 -98 c0 -6 -55 -28 -71
-28 -5 0 -9 28 -9 63 l1 62 39 -45 c22 -25 40 -48 40 -52z m2430 12 l0 -40
-70 0 -70 0 0 -355 c0 -195 -2 -355 -4 -355 -2 0 -11 3 -20 6 -14 5 -16 46
-16 355 l0 349 -315 0 -315 0 0 40 0 40 405 0 405 0 0 -40z m-3650 -4 c0 -1
-5 -17 -11 -34 -19 -54 -52 -62 -271 -62 -191 0 -268 10 -268 33 0 7 -3 22 -6
34 l-6 23 273 3 c151 1 277 3 282 5 4 1 7 0 7 -2z m2062 -41 c47 -16 76 -40
65 -52 -4 -3 -13 -1 -20 5 -8 7 -17 9 -20 5 -4 -3 -7 -1 -7 7 0 10 -3 10 -15
0 -8 -7 -15 -9 -15 -6 0 4 -9 2 -20 -4 -12 -6 -40 -15 -63 -19 -34 -6 -20 -8
78 -14 143 -9 208 -33 213 -80 3 -23 -2 -30 -32 -42 -20 -8 -60 -16 -91 -16
-48 -1 -58 2 -76 25 -31 40 -114 60 -221 53 -62 -4 -88 -2 -92 6 -2 7 -5 5 -5
-4 -1 -20 -355 -148 -427 -155 -25 -2 -54 -9 -64 -14 -10 -6 -31 -10 -47 -10
-19 0 13 18 97 53 124 52 192 86 177 87 -4 0 -77 -29 -162 -65 -85 -36 -165
-65 -179 -65 -46 0 -126 23 -142 42 -27 29 4 95 77 163 33 30 64 55 69 55 5 0
14 -9 20 -19 30 -56 121 -77 270 -63 87 8 105 14 210 66 63 31 138 63 165 71
62 18 192 13 257 -10z m1388 -215 l0 -200 -180 0 -180 0 0 91 c0 115 7 129 65
129 48 0 65 16 65 64 0 36 -25 56 -71 56 -37 0 -39 2 -39 30 l0 30 170 0 170
0 0 -200z m-3807 133 l137 -5 0 -164 0 -164 -160 0 -160 0 0 176 0 176 23 -7
c12 -4 84 -10 160 -12z m3551 -19 c9 -8 16 -24 16 -34 0 -41 -25 -50 -141 -50
-104 0 -110 1 -120 23 -7 15 -7 31 0 50 l11 27 109 0 c86 0 113 -3 125 -16z
m-3010 -40 l46 -7 0 -257 c0 -209 -3 -260 -14 -269 -9 -8 -46 -11 -103 -9
l-88 3 3 37 c2 20 -1 97 -7 170 -6 73 -13 179 -17 236 l-6 102 70 0 c38 0 90
-3 116 -6z m1790 -18 c57 -14 97 -39 83 -52 -10 -10 -237 47 -231 58 8 12 82
9 148 -6z m1106 -46 c0 -5 -9 -10 -20 -10 -11 0 -20 5 -20 10 0 6 9 10 20 10
11 0 20 -4 20 -10z m-896 -77 c-15 -27 -37 -58 -49 -71 -20 -22 -24 -22 -92
-12 -40 6 -113 12 -163 13 -86 2 -93 1 -112 -23 -15 -19 -18 -32 -13 -60 15
-80 21 -75 -93 -78 -98 -3 -103 -2 -111 19 -21 59 30 161 105 209 67 42 118
45 259 15 66 -13 143 -25 172 -25 44 0 55 4 80 30 41 44 48 37 17 -17z m894
-121 c2 -157 2 -162 -18 -162 -19 0 -20 6 -20 143 0 150 5 190 24 184 7 -2 12
-57 14 -165z m-985 -2 c60 -12 97 -43 120 -101 l15 -39 -181 1 c-100 1 -193 4
-207 8 -17 4 -29 18 -37 41 -19 56 -16 89 10 100 25 11 200 5 280 -10z m-1624
-60 l10 -30 -58 0 c-68 0 -87 -14 -78 -59 6 -29 6 -29 -48 -33 l-55 -3 0 78 0
77 109 0 109 0 11 -30z m1906 14 c-20 -15 -107 -44 -132 -44 -7 0 -19 14 -28
30 l-16 30 98 0 c89 -1 96 -2 78 -16z m-882 -40 c30 -6 37 -11 37 -30 0 -31
12 -33 191 -36 142 -3 146 -4 182 -31 20 -15 37 -24 37 -18 0 5 -12 19 -27 30
l-28 21 173 -3 174 -2 13 -32 14 -33 -540 0 c-472 0 -539 2 -539 15 0 26 70
93 113 109 44 15 137 20 200 10z m-1003 -43 c0 -11 3 -26 6 -35 5 -14 -4 -16
-65 -16 l-71 0 0 35 0 35 65 0 c57 0 65 -2 65 -19z m484 -4 c5 -8 6 -22 3 -31
-6 -14 -33 -16 -236 -16 l-229 0 -6 23 c-3 12 -6 27 -6 33 0 19 462 10 474 -9z
m2156 -72 l0 -25 -115 0 c-64 0 -115 4 -115 9 0 5 7 17 16 25 12 12 38 16 115
16 99 0 99 0 99 -25z m48 -3 c2 -14 -2 -22 -11 -22 -15 0 -29 34 -19 45 11 11
27 -2 30 -23z m-155 -61 c3 -15 -2 -20 -25 -25 -58 -12 -73 -8 -76 19 -2 24 1
25 47 25 39 0 50 -4 54 -19z m87 -1 c0 -16 -7 -20 -35 -20 -28 0 -35 4 -35 20
0 16 7 20 35 20 28 0 35 -4 35 -20z m48 -2 c-2 -13 -7 -23 -13 -23 -5 0 -11
10 -13 23 -2 15 2 22 13 22 11 0 15 -7 13 -22z"/>
<path d="M1843 2603 c15 -2 37 -2 50 0 12 2 0 4 -28 4 -27 0 -38 -2 -22 -4z"/>
<path d="M1471 1864 c0 -11 3 -14 6 -6 3 7 2 16 -1 19 -3 4 -6 -2 -5 -13z"/>
<path d="M1472 1780 c0 -19 2 -27 5 -17 2 9 2 25 0 35 -3 9 -5 1 -5 -18z"/>
<path d="M1482 1720 c0 -14 2 -19 5 -12 2 6 2 18 0 25 -3 6 -5 1 -5 -13z"/>
<path d="M1502 1650 c0 -8 6 -31 13 -50 7 -19 13 -28 13 -20 0 8 -6 31 -13 50
-7 19 -13 28 -13 20z"/>
<path d="M1537 1505 c3 -33 7 -62 9 -64 7 -8 2 74 -6 99 -5 16 -6 2 -3 -35z"/>
<path d="M490 2071 c43 -14 219 -21 340 -12 111 8 108 8 -91 9 -114 1 -222 4
-240 7 -29 4 -30 4 -9 -4z"/>
<path d="M718 2027 c24 -7 36 -7 44 1 9 9 1 12 -32 11 l-45 -1 33 -11z"/>
<path d="M4400 1915 c0 -32 4 -55 11 -55 5 0 7 5 4 10 -9 14 4 52 15 45 5 -3
14 3 19 13 12 22 -3 42 -31 42 -15 0 -18 -9 -18 -55z"/>
<path d="M2968 1713 c17 -2 47 -2 65 0 17 2 3 4 -33 4 -36 0 -50 -2 -32 -4z"/>
<path d="M3088 1703 c7 -3 16 -2 19 1 4 3 -2 6 -13 5 -11 0 -14 -3 -6 -6z"/>
<path d="M1107 1524 c-4 -4 -7 -20 -7 -36 0 -29 0 -29 50 -22 47 6 50 5 60
-20 16 -42 12 -122 -6 -140 -8 -9 -11 -16 -5 -16 27 0 40 83 25 158 -5 27 -11
31 -43 34 -34 4 -33 4 17 12 68 11 67 26 -2 26 -30 0 -61 2 -68 5 -8 3 -17 2
-21 -1z"/>
<path d="M1644 3850 c0 -157 2 -221 3 -142 2 78 2 206 0 285 -1 78 -3 14 -3
-143z"/>
<path d="M2793 3966 c-16 -13 -39 -47 -52 -74 -21 -45 -27 -50 -64 -55 -53 -7
-87 -42 -94 -95 l-6 -42 388 0 388 0 -6 42 c-7 54 -41 88 -96 95 -40 5 -44 9
-68 60 -42 89 -52 93 -219 93 -136 0 -144 -1 -171 -24z m338 -13 c12 -12 34
-46 48 -75 25 -50 28 -53 67 -56 46 -3 77 -30 88 -74 l6 -28 -374 0 -375 0 9
31 c13 46 37 68 78 71 29 2 41 10 57 36 77 126 72 123 242 120 121 -3 134 -5
154 -25z"/>
<path d="M2827 3929 c-16 -10 -62 -87 -55 -94 3 -3 344 -8 376 -6 9 1 7 12 -8
40 -32 65 -49 71 -180 71 -63 0 -123 -5 -133 -11z m285 -32 c9 -12 19 -30 22
-39 4 -17 -9 -18 -170 -18 -96 0 -174 3 -174 8 0 4 9 21 20 39 l19 32 98 4
c132 5 165 0 185 -26z"/>
<path d="M2803 3773 c86 -2 228 -2 315 0 86 1 15 3 -158 3 -173 0 -244 -2
-157 -3z"/>
<path d="M290 3600 l0 -270 295 0 295 0 0 270 0 270 -295 0 -295 0 0 -270z
m570 5 l0 -245 -270 0 -270 0 0 245 0 245 270 0 270 0 0 -245z"/>
<path d="M352 3608 l3 -193 2 187 3 188 223 3 222 2 -227 3 -228 2 2 -192z"/>
<path d="M810 3604 l0 -196 -173 4 c-202 4 -217 9 -242 86 -15 47 -15 47 -11
8 6 -47 37 -83 85 -96 20 -5 107 -10 194 -10 l157 0 0 200 c0 110 -2 200 -5
200 -3 0 -5 -88 -5 -196z"/>
<path d="M442 3754 c-27 -19 -48 -58 -57 -107 -6 -29 -2 -45 18 -79 14 -24 35
-52 48 -63 17 -15 15 -9 -10 28 -52 77 -51 145 2 205 24 26 89 33 67 7 -7 -8
-16 -13 -20 -10 -5 3 -12 0 -16 -7 -4 -7 -4 -10 1 -6 4 4 21 0 37 -8 16 -8 33
-12 39 -8 6 3 19 -2 30 -12 14 -13 19 -31 20 -73 0 -62 11 -102 22 -84 4 7 3
14 -3 18 -5 3 -10 34 -10 69 0 50 -4 67 -20 81 -41 37 17 59 84 31 39 -16 66
-51 66 -85 0 -23 -1 -23 -19 -7 -12 11 -27 15 -39 12 -19 -6 -42 -45 -42 -71
0 -15 69 -83 98 -98 10 -5 -7 14 -35 41 -29 28 -53 53 -53 56 0 15 24 55 36
60 7 3 24 -4 38 -15 27 -22 30 -18 26 31 -4 58 -61 100 -134 100 -25 0 -38 -6
-46 -20 -11 -20 -44 -27 -54 -11 -3 5 1 11 9 15 8 3 15 10 15 16 0 16 -73 12
-98 -6z"/>
<path d="M497 3593 c-4 -3 -7 -13 -7 -22 0 -13 2 -14 9 -2 14 21 41 5 47 -29
4 -17 10 -33 14 -35 12 -7 -6 63 -20 80 -13 16 -32 19 -43 8z"/>
<path d="M4122 3758 c-5 -13 -8 -279 -8 -591 1 -493 3 -569 16 -577 8 -5 111
-10 228 -10 276 0 282 3 282 121 0 53 -3 61 -22 69 -13 5 -17 9 -10 9 19 1 11
52 -10 65 -35 22 -67 -18 -54 -67 4 -18 12 -22 43 -22 l38 0 0 -62 c0 -37 -5
-67 -13 -75 -10 -10 -66 -14 -212 -16 l-200 -3 0 93 c0 81 2 90 13 68 29 -57
109 -51 140 11 41 84 -44 156 -117 98 l-26 -20 0 455 0 456 44 0 c40 0 45 -3
55 -30 l10 -30 129 0 c188 0 172 36 172 -393 l0 -347 -150 0 -150 0 0 298 c0
195 4 292 10 282 8 -13 10 -12 10 3 0 16 10 17 108 15 l107 -3 0 -70 0 -70
-100 0 -100 0 -6 55 -6 55 -1 -50 c-2 -75 -1 -76 119 -73 l104 3 3 77 c4 99 1
101 -148 92 l-110 -7 -1 -304 c-1 -166 -2 -309 -3 -315 -1 -10 38 -13 164 -13
l165 0 3 366 2 365 -26 25 c-24 22 -35 24 -157 29 l-132 5 -3 28 -3 27 -95 0
c-89 0 -95 -1 -102 -22z m68 -579 l0 -580 -27 3 -28 3 -3 578 -2 577 30 0 30
0 0 -581z m128 -325 c2 -12 -4 -29 -14 -38 -9 -9 -14 -19 -11 -23 3 -3 14 9
25 26 21 35 32 31 32 -11 0 -57 -70 -89 -112 -51 -42 37 -3 127 52 121 17 -2
26 -10 28 -24z m286 -36 c13 -22 -14 -54 -38 -45 -16 6 -22 48 -9 61 11 11 35
3 47 -16z"/>
<path d="M3559 3502 c-13 -10 -71 -45 -129 -77 -223 -125 -280 -169 -280 -219
0 -19 10 -40 27 -58 l27 -29 -57 -52 c-45 -42 -57 -60 -57 -83 0 -17 5 -35 12
-42 9 -9 93 -12 315 -12 l303 0 0 -69 c0 -90 27 -122 73 -88 16 11 17 42 15
367 l-3 355 -82 0 c-52 0 -87 5 -95 13 -17 17 -41 15 -69 -6z m60 -1 c24 -16
5 -37 -94 -106 -76 -53 -98 -65 -110 -55 -11 9 -25 4 -67 -23 -29 -19 -65 -41
-80 -51 -18 -10 -28 -25 -28 -40 0 -38 -12 -86 -21 -86 -5 0 -18 9 -30 21 -28
28 -19 75 20 111 17 15 85 59 153 99 68 39 148 86 178 105 62 38 60 37 79 25z
m170 -25 c8 -9 11 -110 9 -352 l-3 -339 -25 0 -25 0 -3 340 c-1 187 0 346 3
352 6 17 30 16 44 -1z m-62 -41 c2 -47 -6 -56 -27 -30 -22 26 -53 16 -155 -50
-67 -44 -101 -61 -106 -53 -5 7 24 33 79 71 48 33 100 71 115 84 17 13 42 23
60 23 31 0 32 -2 34 -45z m-30 -47 c22 -21 23 -26 23 -200 l0 -178 -307 0
-308 1 60 53 c50 46 63 53 82 45 21 -8 24 -5 29 20 4 16 18 35 35 45 17 10 35
26 41 36 9 13 17 16 33 10 11 -4 56 -4 100 1 44 4 85 8 92 8 29 2 135 122 120
137 -2 2 -18 -18 -35 -45 -41 -66 -74 -82 -190 -88 -104 -7 -113 1 -41 37 22
11 80 47 130 80 50 33 96 60 102 60 6 0 21 -10 34 -22z m-277 -87 c0 -9 -13
-24 -29 -34 -27 -16 -29 -16 -45 2 -16 18 -15 20 15 39 35 22 59 19 59 -7z
m-81 -43 c5 -13 7 -27 5 -33 -5 -13 -57 -47 -68 -45 -5 1 -13 -4 -17 -12 -6
-8 -9 1 -9 27 0 34 5 43 33 62 41 28 46 28 56 1z m-83 -135 c-10 -10 -19 5
-10 18 6 11 8 11 12 0 2 -7 1 -15 -2 -18z m469 -153 l0 -25 -299 -3 c-310 -2
-326 -1 -326 39 0 19 12 19 313 17 l312 -3 0 -25z"/>
<path d="M4398 3460 c-4 -43 -2 -44 51 -34 24 5 31 12 31 30 0 16 -6 24 -17
24 -14 0 -15 -2 -5 -9 11 -7 11 -9 -1 -14 -14 -5 -37 10 -37 24 0 5 19 10 43
12 41 3 41 4 -9 5 l-52 2 -4 -40z"/>
<path d="M1973 3473 c-47 -4 -54 -7 -59 -29 -4 -16 -1 -31 10 -42 13 -15 16
-51 18 -213 3 -193 3 -194 26 -197 27 -4 25 -19 22 216 l-2 193 183 -1 c107
-1 195 3 209 8 18 8 -32 11 -187 11 l-213 1 0 -170 c0 -101 -4 -170 -10 -170
-13 0 -18 320 -5 321 6 1 -1 4 -14 8 -27 7 -35 20 -23 38 6 9 76 13 272 13
221 1 266 -1 275 -13 8 -11 38 -16 113 -18 99 -4 102 -5 134 -36 21 -21 34
-46 39 -75 6 -39 7 -40 8 -10 1 44 -23 89 -62 112 -26 16 -50 20 -124 20 -82
0 -93 2 -103 20 -10 19 -20 20 -233 18 -122 -1 -246 -3 -274 -5z"/>
<path d="M993 3344 c-18 -8 -18 -385 -1 -402 8 -8 50 -12 125 -12 l113 0 11
28 c7 18 8 84 2 207 l-8 180 -115 2 c-63 1 -121 -1 -127 -3z m237 -99 l0 -85
-112 -2 -113 -2 113 -3 112 -4 0 -94 0 -95 -115 0 -114 0 -3 185 -3 185 118 0
117 0 0 -85z"/>
<path d="M1063 3283 c32 -2 81 -2 110 0 29 2 3 3 -58 3 -60 0 -84 -1 -52 -3z"/>
<path d="M1053 3113 c9 -2 25 -2 35 0 9 3 1 5 -18 5 -19 0 -27 -2 -17 -5z"/>
<path d="M4419 3330 c-25 -14 -31 -55 -15 -94 14 -34 14 -34 -25 -66 -21 -17
-39 -36 -39 -42 0 -6 8 -4 18 5 15 13 21 14 32 4 9 -9 11 -9 6 0 -8 15 24 54
37 46 6 -4 7 -1 2 7 -6 10 -2 12 16 7 13 -4 32 -7 42 -7 10 0 32 -13 48 -29
63 -64 22 -181 -65 -181 -56 0 -88 35 -94 103 -5 58 -22 70 -22 16 0 -75 51
-129 123 -129 65 0 117 72 103 143 -9 44 -53 87 -90 88 l-31 2 35 7 c32 7 29
8 -25 11 l-60 3 80 5 80 6 3 38 c5 55 -10 67 -82 67 -33 0 -68 -5 -77 -10z
m151 -45 c0 -41 -16 -48 -101 -43 -48 3 -54 6 -57 26 -7 46 2 52 83 52 l75 0
0 -35z"/>
<path d="M367 3223 c-11 -11 -8 -362 3 -384 10 -18 23 -19 210 -19 l200 0 0
205 0 205 -203 0 c-112 0 -207 -3 -210 -7z m403 -193 l0 -180 -195 0 -195 0 0
180 0 180 195 0 195 0 0 -180z"/>
<path d="M562 3173 l147 -4 4 -137 3 -137 2 143 2 142 -152 -2 -153 -2 147 -3z"/>
<path d="M417 3133 c-4 -3 -7 -57 -7 -120 l0 -113 128 2 127 2 -124 3 -124 4
6 114 c3 63 4 115 3 115 -2 0 -6 -3 -9 -7z"/>
<path d="M455 3110 c-8 -16 -15 -31 -15 -35 0 -8 182 -4 210 5 16 5 -9 8 -74
9 l-98 1 4 25 c7 34 -8 32 -27 -5z"/>
<path d="M628 3123 c12 -2 32 -2 45 0 12 2 2 4 -23 4 -25 0 -35 -2 -22 -4z"/>
<path d="M568 3043 c12 -2 32 -2 45 0 12 2 2 4 -23 4 -25 0 -35 -2 -22 -4z"/>
<path d="M508 3003 c29 -2 74 -2 100 0 26 2 2 3 -53 3 -55 0 -76 -1 -47 -3z"/>
<path d="M508 2953 c23 -2 61 -2 85 0 23 2 4 4 -43 4 -47 0 -66 -2 -42 -4z"/>
<path d="M4522 3099 c-21 -33 -53 -40 -91 -18 -47 28 -51 16 -4 -14 35 -22 40
-23 65 -11 15 8 32 24 39 35 14 27 7 34 -9 8z"/>
<path d="M3209 2900 c-126 -38 -168 -214 -77 -324 39 -48 81 -68 138 -68 88 0
159 61 181 156 33 151 -98 280 -242 236z m158 -36 c38 -27 73 -99 73 -149 0
-22 -9 -58 -19 -80 -44 -96 -137 -131 -223 -83 -117 66 -127 265 -15 322 44
23 147 17 184 -10z"/>
<path d="M3376 2733 c-4 -18 -12 -35 -17 -38 -12 -8 -12 -75 1 -75 6 0 10 12
10 26 0 14 5 34 11 45 5 11 9 32 7 47 -4 27 -4 27 -12 -5z"/>
<path d="M3220 2723 c3 -43 1 -46 -15 -33 -9 7 -15 8 -15 2 0 -5 7 -13 16 -16
8 -3 12 -10 9 -16 -3 -6 1 -7 10 -4 11 5 15 17 13 42 -2 21 2 37 10 39 8 3 12
-9 12 -40 0 -35 -4 -47 -17 -51 -14 -4 -14 -4 2 -3 16 2 21 11 25 47 4 40 8
45 33 48 16 2 35 -2 43 -9 11 -9 14 -8 14 5 0 13 -12 16 -71 16 l-71 0 2 -27z"/>
<path d="M986 2806 c-23 -17 -28 -372 -6 -386 23 -14 183 -12 203 3 16 11 17
32 15 202 l-3 190 -97 1 c-59 1 -103 -3 -112 -10z m109 -6 c-3 -5 -10 -10 -16
-10 -5 0 -9 5 -9 10 0 6 7 10 16 10 8 0 12 -4 9 -10z m-48 -6 c-3 -3 -12 -4
-19 -1 -8 3 -5 6 6 6 11 1 17 -2 13 -5z m118 -18 c-9 -13 -12 -26 -7 -28 5 -1
12 -60 14 -130 5 -143 9 -138 -79 -138 -23 0 -45 -5 -49 -11 -3 -6 -15 -9 -25
-6 -11 3 -20 -1 -22 -12 -3 -9 -4 54 -3 139 l1 155 70 3 c76 3 95 12 75 37
-11 13 -9 15 14 15 26 0 26 -1 11 -24z"/>
<path d="M1010 2709 c0 -5 5 -7 10 -4 6 3 10 8 10 11 0 2 -4 4 -10 4 -5 0 -10
-5 -10 -11z"/>
<path d="M1083 2613 c15 -2 37 -2 50 0 12 2 0 4 -28 4 -27 0 -38 -2 -22 -4z"/>
<path d="M1025 2560 c-8 -13 5 -13 25 0 13 8 13 10 -2 10 -9 0 -20 -4 -23 -10z"/>
<path d="M325 2738 c-3 -13 -4 -93 -3 -178 l3 -155 220 0 220 0 3 145 c2 80 0
160 -3 178 l-6 32 -214 0 c-214 0 -215 0 -220 -22z m425 -153 l0 -165 -205 0
-205 0 0 165 0 165 205 0 205 0 0 -165z"/>
<path d="M458 2703 c45 -2 119 -2 165 0 45 1 8 3 -83 3 -91 0 -128 -2 -82 -3z"/>
<path d="M518 2663 c17 -2 47 -2 65 0 17 2 3 4 -33 4 -36 0 -50 -2 -32 -4z"/>
<path d="M382 2548 l-2 -98 168 2 167 2 -162 3 -162 3 -4 93 -3 92 -2 -97z"/>
<path d="M587 2613 c18 -2 50 -2 70 0 21 2 7 4 -32 4 -38 0 -55 -2 -38 -4z"/>
<path d="M488 2563 c39 -2 105 -2 145 0 39 1 7 3 -73 3 -80 0 -112 -2 -72 -3z"/>
<path d="M488 2513 c39 -2 105 -2 145 0 39 1 7 3 -73 3 -80 0 -112 -2 -72 -3z"/>
<path d="M4513 2727 c4 -10 1 -26 -5 -37 -16 -25 5 -50 41 -49 24 1 23 2 -7
10 -39 12 -42 45 -4 43 17 0 20 2 10 10 -7 6 -19 18 -27 26 -12 13 -13 13 -8
-3z"/>
<path d="M4584 2671 c0 -11 4 -17 8 -15 4 3 8 12 8 20 0 8 -4 14 -8 14 -4 0
-8 -9 -8 -19z"/>
<path d="M1710 1706 c0 -3 60 -45 134 -95 130 -88 183 -117 194 -107 3 3 -7
10 -21 15 -35 13 -180 103 -244 152 -49 37 -63 44 -63 35z"/>
<path d="M3652 1518 c-33 -105 -54 -152 -85 -185 -11 -13 -15 -23 -9 -23 22 0
61 75 96 184 20 61 34 112 31 114 -2 2 -17 -38 -33 -90z"/>
<path d="M1950 1290 c0 -6 57 -10 151 -10 97 0 148 4 144 10 -4 6 -65 10 -151
10 -89 0 -144 -4 -144 -10z"/>
</g>
</svg>